<?xml version="1.0" standalone="no"?>
<!DOCTYPE svg PUBLIC "-//W3C//DTD SVG 20010904//EN"
 "http://www.w3.org/TR/2001/REC-SVG-20010904/DTD/svg10.dtd">
<svg version="1.0" xmlns="http://www.w3.org/2000/svg"
 width="500.000000pt" height="500.000000pt" viewBox="0 0 500.000000 500.000000"
 preserveAspectRatio="xMidYMid meet">
<metadata>
Created by potrace 1.14, written by Peter Selinger 2001-2017
</metadata>
<g transform="translate(0.000000,500.000000) scale(0.100000,-0.100000)"
fill="#000000" stroke="none">
<path d="M2335 3942 c-15 -2 -31 -31 -68 -125 -27 -67 -54 -135 -61 -152 -7
-16 -80 -196 -161 -400 -81 -203 -153 -383 -160 -400 -6 -16 -24 -61 -39 -100
-15 -38 -34 -83 -41 -100 -12 -25 -346 -859 -576 -1437 l-19 -48 273 0 272 0
106 298 107 297 535 1 535 1 16 -41 c8 -22 55 -155 105 -295 49 -139 92 -255
94 -257 2 -3 123 -3 269 -2 l266 3 -320 805 c-176 443 -326 819 -333 835 -7
17 -109 271 -225 565 -117 294 -216 539 -220 543 -7 8 -311 16 -355 9z m349
-1227 c96 -264 176 -486 178 -494 3 -13 -49 -15 -352 -16 -195 -1 -358 0 -362
2 -8 4 2 32 172 493 61 168 128 349 147 403 20 54 37 96 39 95 1 -2 82 -219
178 -483z"/>
</g>
</svg>
